<svg width="1280" height="720" viewBox="0 0 1280 720" fill="none" xmlns="http://www.w3.org/2000/svg">
  <rect width="1280" height="720" rx="36" fill="#F9F7EA"/>
  <rect x="28" y="24" width="1224" height="96" rx="30" fill="#5C8D90"/>
  <rect x="880" y="42" width="328" height="58" rx="29" fill="#FEFAE0"/>
  <rect x="994" y="52" width="92" height="38" rx="19" fill="#5C8D90"/>
  <rect x="898" y="52" width="86" height="38" rx="19" fill="#FFFDF0"/>
  <rect x="1096" y="52" width="92" height="38" rx="19" fill="#FFFDF0"/>
  <text x="80" y="68" fill="#FEFAE0" font-family="DM Sans, Arial, sans-serif" font-size="38" font-weight="700">Generator Workspace</text>
  <text x="80" y="98" fill="#EAF2EF" font-family="DM Sans, Arial, sans-serif" font-size="22">Custom grammar input, derivation generation, and parse tree export</text>
  <rect x="72" y="164" width="1136" height="500" rx="28" fill="white" stroke="#DCE3D8"/>
  <rect x="104" y="198" width="530" height="210" rx="24" fill="#FBFCF4" stroke="#DCE3D8"/>
  <text x="132" y="238" fill="#2C2C2A" font-family="DM Sans, Arial, sans-serif" font-size="24" font-weight="700">Grammar Rules</text>
  <rect x="132" y="258" width="474" height="122" rx="18" fill="#F8FBFD" stroke="#BADFEA"/>
  <text x="154" y="300" fill="#2C2C2A" font-family="JetBrains Mono, monospace" font-size="24">S -&gt; a S b | ε</text>
  <text x="154" y="340" fill="#2C2C2A" font-family="JetBrains Mono, monospace" font-size="24">A -&gt; a A | a</text>
  <rect x="664" y="198" width="512" height="210" rx="24" fill="#FBFCF4" stroke="#DCE3D8"/>
  <text x="694" y="238" fill="#2C2C2A" font-family="DM Sans, Arial, sans-serif" font-size="24" font-weight="700">Input and Controls</text>
  <rect x="694" y="258" width="452" height="52" rx="16" fill="#FFFDF0" stroke="#DDE5B6"/>
  <text x="716" y="292" fill="#5F625D" font-family="JetBrains Mono, monospace" font-size="22">aabb</text>
  <rect x="694" y="328" width="140" height="44" rx="22" fill="#5C8D90"/>
  <rect x="846" y="328" width="140" height="44" rx="22" fill="#FEFAE0"/>
  <rect x="998" y="328" width="148" height="44" rx="22" fill="#FEFAE0"/>
  <text x="730" y="356" fill="white" font-family="DM Sans, Arial, sans-serif" font-size="18" font-weight="700">Leftmost</text>
  <text x="875" y="356" fill="#2C2C2A" font-family="DM Sans, Arial, sans-serif" font-size="18" font-weight="700">Rightmost</text>
  <text x="1040" y="356" fill="#2C2C2A" font-family="DM Sans, Arial, sans-serif" font-size="18" font-weight="700">Both</text>
  <rect x="694" y="392" width="180" height="48" rx="24" fill="#5C8D90"/>
  <text x="742" y="422" fill="#FEFAE0" font-family="DM Sans, Arial, sans-serif" font-size="20" font-weight="700">Generate</text>
  <rect x="104" y="438" width="540" height="188" rx="24" fill="#FBFCF4" stroke="#DCE3D8"/>
  <text x="132" y="476" fill="#2C2C2A" font-family="DM Sans, Arial, sans-serif" font-size="24" font-weight="700">Leftmost Derivation</text>
  <rect x="132" y="500" width="484" height="32" rx="16" fill="#EAF5FA"/>
  <rect x="146" y="506" width="22" height="20" rx="10" fill="#5C8D90"/>
  <text x="184" y="523" fill="#2C2C2A" font-family="JetBrains Mono, monospace" font-size="19">S</text>
  <rect x="132" y="542" width="484" height="32" rx="16" fill="#FEFAE0"/>
  <rect x="146" y="548" width="22" height="20" rx="10" fill="#5C8D90"/>
  <text x="184" y="565" fill="#2C2C2A" font-family="JetBrains Mono, monospace" font-size="19">a S b</text>
  <rect x="132" y="584" width="484" height="32" rx="16" fill="#EAF5FA"/>
  <rect x="146" y="590" width="22" height="20" rx="10" fill="#5C8D90"/>
  <text x="184" y="607" fill="#2C2C2A" font-family="JetBrains Mono, monospace" font-size="19">a a b b</text>
  <rect x="670" y="438" width="506" height="188" rx="24" fill="#FBFCF4" stroke="#DCE3D8"/>
  <text x="700" y="476" fill="#2C2C2A" font-family="DM Sans, Arial, sans-serif" font-size="24" font-weight="700">Generated Parse Tree</text>
  <line x1="924" y1="514" x2="824" y2="562" stroke="#5C8D90" stroke-width="4"/>
  <line x1="924" y1="514" x2="1024" y2="562" stroke="#5C8D90" stroke-width="4"/>
  <line x1="824" y1="562" x2="774" y2="606" stroke="#5C8D90" stroke-width="4"/>
  <line x1="824" y1="562" x2="874" y2="606" stroke="#5C8D90" stroke-width="4"/>
  <line x1="1024" y1="562" x2="974" y2="606" stroke="#5C8D90" stroke-width="4"/>
  <line x1="1024" y1="562" x2="1074" y2="606" stroke="#5C8D90" stroke-width="4"/>
  <rect x="890" y="490" width="68" height="36" rx="18" fill="#EAF5FA" stroke="#5C8D90" stroke-width="3"/>
  <rect x="790" y="544" width="68" height="36" rx="18" fill="#EAF5FA" stroke="#5C8D90" stroke-width="3"/>
  <rect x="990" y="544" width="68" height="36" rx="18" fill="#EAF5FA" stroke="#5C8D90" stroke-width="3"/>
  <rect x="740" y="592" width="68" height="36" rx="18" fill="#FEFAE0" stroke="#5C8D90" stroke-width="3"/>
  <rect x="840" y="592" width="68" height="36" rx="18" fill="#FEFAE0" stroke="#5C8D90" stroke-width="3"/>
  <rect x="940" y="592" width="68" height="36" rx="18" fill="#FEFAE0" stroke="#5C8D90" stroke-width="3"/>
  <rect x="1040" y="592" width="68" height="36" rx="18" fill="#FEFAE0" stroke="#5C8D90" stroke-width="3"/>
</svg>
