<svg width="1280" height="720" viewBox="0 0 1280 720" fill="none" xmlns="http://www.w3.org/2000/svg">
  <rect width="1280" height="720" rx="36" fill="#F9F7EA"/>
  <rect x="28" y="24" width="1224" height="96" rx="30" fill="#5C8D90"/>
  <rect x="880" y="42" width="328" height="58" rx="29" fill="#FEFAE0" fill-opacity="0.95"/>
  <rect x="898" y="52" width="86" height="38" rx="19" fill="#5C8D90"/>
  <rect x="994" y="52" width="92" height="38" rx="19" fill="#FFFDF0"/>
  <rect x="1096" y="52" width="92" height="38" rx="19" fill="#FFFDF0"/>
  <text x="80" y="67" fill="#FEFAE0" font-family="DM Sans, Arial, sans-serif" font-size="38" font-weight="700">Context Free Grammar and Parse Trees</text>
  <text x="80" y="98" fill="#EAF2EF" font-family="DM Sans, Arial, sans-serif" font-size="22">Learn section with key concepts, grammar components, and guided theory</text>
  <rect x="72" y="164" width="1136" height="500" rx="28" fill="white" stroke="#DCE3D8"/>
  <text x="112" y="214" fill="#2C2C2A" font-family="DM Sans, Arial, sans-serif" font-size="30" font-weight="700">Key Concepts</text>
  <text x="112" y="244" fill="#5F625D" font-family="DM Sans, Arial, sans-serif" font-size="18">Interactive definitions and grammar foundations presented as study cards</text>
  <rect x="112" y="276" width="280" height="118" rx="22" fill="#FEFAE0" stroke="#BADFEA"/>
  <rect x="126" y="294" width="10" height="82" rx="5" fill="#5C8D90"/>
  <text x="156" y="323" fill="#5C8D90" font-family="DM Sans, Arial, sans-serif" font-size="16" font-weight="700">Grammar</text>
  <text x="156" y="355" fill="#2C2C2A" font-family="DM Sans, Arial, sans-serif" font-size="26" font-weight="700">Context-Free Grammar</text>
  <text x="156" y="383" fill="#5F625D" font-family="DM Sans, Arial, sans-serif" font-size="16">A 4-tuple that defines how strings are generated.</text>
  <rect x="412" y="276" width="280" height="118" rx="22" fill="#F7FCFE" stroke="#BADFEA"/>
  <rect x="426" y="294" width="10" height="82" rx="5" fill="#5C8D90"/>
  <text x="456" y="323" fill="#5C8D90" font-family="DM Sans, Arial, sans-serif" font-size="16" font-weight="700">Derivation</text>
  <text x="456" y="355" fill="#2C2C2A" font-family="DM Sans, Arial, sans-serif" font-size="26" font-weight="700">Leftmost Derivation</text>
  <text x="456" y="383" fill="#5F625D" font-family="DM Sans, Arial, sans-serif" font-size="16">Always expand the leftmost non-terminal first.</text>
  <rect x="712" y="276" width="280" height="118" rx="22" fill="#F1F7EB" stroke="#DDE5B6"/>
  <rect x="726" y="294" width="10" height="82" rx="5" fill="#5C8D90"/>
  <text x="756" y="323" fill="#5C8D90" font-family="DM Sans, Arial, sans-serif" font-size="16" font-weight="700">Structure</text>
  <text x="756" y="355" fill="#2C2C2A" font-family="DM Sans, Arial, sans-serif" font-size="26" font-weight="700">Parse Tree</text>
  <text x="756" y="383" fill="#5F625D" font-family="DM Sans, Arial, sans-serif" font-size="16">A visual representation of the derivation structure.</text>
  <rect x="1012" y="276" width="156" height="118" rx="22" fill="#F7FCFE" stroke="#BADFEA"/>
  <text x="1046" y="340" fill="#2C2C2A" font-family="JetBrains Mono, monospace" font-size="44" font-weight="700">G=(V,T,P,S)</text>
  <rect x="112" y="434" width="1056" height="188" rx="26" fill="#FBFCF4" stroke="#DCE3D8"/>
  <rect x="180" y="478" width="120" height="90" rx="26" fill="#F3F7F2" stroke="#5C8D90" stroke-width="3"/>
  <rect x="430" y="478" width="120" height="90" rx="26" fill="#FEFAE0" stroke="#5C8D90" stroke-width="3"/>
  <rect x="680" y="478" width="120" height="90" rx="26" fill="#EAF5FA" stroke="#5C8D90" stroke-width="3"/>
  <rect x="930" y="478" width="120" height="90" rx="26" fill="#F3F7F2" stroke="#5C8D90" stroke-width="3"/>
  <line x1="300" y1="523" x2="430" y2="523" stroke="#D8D7CC" stroke-width="4" stroke-dasharray="10 12"/>
  <line x1="550" y1="523" x2="680" y2="523" stroke="#D8D7CC" stroke-width="4" stroke-dasharray="10 12"/>
  <line x1="800" y1="523" x2="930" y2="523" stroke="#D8D7CC" stroke-width="4" stroke-dasharray="10 12"/>
  <text x="224" y="530" fill="#2C2C2A" font-family="DM Sans, Arial, sans-serif" font-size="42" font-weight="700">V</text>
  <text x="474" y="530" fill="#2C2C2A" font-family="DM Sans, Arial, sans-serif" font-size="42" font-weight="700">T</text>
  <text x="724" y="530" fill="#2C2C2A" font-family="DM Sans, Arial, sans-serif" font-size="42" font-weight="700">P</text>
  <text x="974" y="530" fill="#2C2C2A" font-family="DM Sans, Arial, sans-serif" font-size="42" font-weight="700">S</text>
  <text x="198" y="560" fill="#666A64" font-family="DM Sans, Arial, sans-serif" font-size="18">Variables</text>
  <text x="448" y="560" fill="#666A64" font-family="DM Sans, Arial, sans-serif" font-size="18">Terminals</text>
  <text x="710" y="560" fill="#666A64" font-family="DM Sans, Arial, sans-serif" font-size="18">Productions</text>
  <text x="972" y="560" fill="#666A64" font-family="DM Sans, Arial, sans-serif" font-size="18">Start Symbol</text>
</svg>
