<svg width="1280" height="720" viewBox="0 0 1280 720" fill="none" xmlns="http://www.w3.org/2000/svg">
  <rect width="1280" height="720" rx="36" fill="#F9F7EA"/>
  <rect x="28" y="24" width="1224" height="96" rx="30" fill="#5C8D90"/>
  <rect x="880" y="42" width="328" height="58" rx="29" fill="#FEFAE0"/>
  <rect x="1096" y="52" width="92" height="38" rx="19" fill="#5C8D90"/>
  <rect x="898" y="52" width="86" height="38" rx="19" fill="#FFFDF0"/>
  <rect x="994" y="52" width="92" height="38" rx="19" fill="#FFFDF0"/>
  <text x="80" y="68" fill="#FEFAE0" font-family="DM Sans, Arial, sans-serif" font-size="38" font-weight="700">Quiz Practice</text>
  <text x="80" y="98" fill="#EAF2EF" font-family="DM Sans, Arial, sans-serif" font-size="22">Randomized concept checks and repeatable student practice</text>
  <rect x="96" y="162" width="1088" height="506" rx="30" fill="white" stroke="#DCE3D8"/>
  <rect x="132" y="198" width="240" height="78" rx="24" fill="#F1F7EB" stroke="#DDE5B6"/>
  <text x="166" y="242" fill="#2C2C2A" font-family="DM Sans, Arial, sans-serif" font-size="28" font-weight="700">Score: 3 / 5</text>
  <rect x="900" y="202" width="240" height="52" rx="24" fill="#5C8D90"/>
  <text x="968" y="235" fill="#FEFAE0" font-family="DM Sans, Arial, sans-serif" font-size="22" font-weight="700">New Set</text>
  <text x="132" y="332" fill="#2C2C2A" font-family="DM Sans, Arial, sans-serif" font-size="34" font-weight="700">Which symbol set corresponds to the terminals of a grammar?</text>
  <rect x="132" y="382" width="1012" height="62" rx="20" fill="#EAF5FA" stroke="#BADFEA"/>
  <rect x="132" y="460" width="1012" height="62" rx="20" fill="#FEFAE0" stroke="#DDE5B6"/>
  <rect x="132" y="538" width="1012" height="62" rx="20" fill="#FBFCF4" stroke="#DCE3D8"/>
  <text x="172" y="420" fill="#2C2C2A" font-family="DM Sans, Arial, sans-serif" font-size="24">V, because variables define productions</text>
  <text x="172" y="498" fill="#2C2C2A" font-family="DM Sans, Arial, sans-serif" font-size="24">T, because terminals are the final symbols in the yield</text>
  <text x="172" y="576" fill="#2C2C2A" font-family="DM Sans, Arial, sans-serif" font-size="24">P, because production rules contain every token</text>
  <rect x="850" y="626" width="294" height="26" rx="13" fill="#F1F7EB"/>
  <rect x="850" y="626" width="176" height="26" rx="13" fill="#5C8D90"/>
</svg>
