<svg width="1280" height="720" viewBox="0 0 1280 720" fill="none" xmlns="http://www.w3.org/2000/svg">
  <rect width="1280" height="720" rx="36" fill="#F9F7EA"/>
  <rect x="28" y="24" width="1224" height="96" rx="30" fill="#5C8D90"/>
  <rect x="880" y="42" width="328" height="58" rx="29" fill="#FEFAE0"/>
  <rect x="1096" y="52" width="92" height="38" rx="19" fill="#5C8D90"/>
  <rect x="898" y="52" width="86" height="38" rx="19" fill="#FFFDF0"/>
  <rect x="994" y="52" width="92" height="38" rx="19" fill="#FFFDF0"/>
  <text x="80" y="68" fill="#FEFAE0" font-family="DM Sans, Arial, sans-serif" font-size="38" font-weight="700">Visualizer Studio</text>
  <text x="80" y="98" fill="#EAF2EF" font-family="DM Sans, Arial, sans-serif" font-size="22">Tree construction, ambiguity comparison, yield, and focused inspection</text>
  <rect x="72" y="164" width="1136" height="500" rx="28" fill="white" stroke="#DCE3D8"/>
  <rect x="104" y="198" width="250" height="46" rx="23" fill="#5C8D90"/>
  <rect x="366" y="198" width="220" height="46" rx="23" fill="#FEFAE0"/>
  <rect x="598" y="198" width="190" height="46" rx="23" fill="#FEFAE0"/>
  <text x="145" y="227" fill="#FEFAE0" font-family="DM Sans, Arial, sans-serif" font-size="18" font-weight="700">Tree Construction</text>
  <text x="422" y="227" fill="#2C2C2A" font-family="DM Sans, Arial, sans-serif" font-size="18" font-weight="700">Ambiguous Grammar</text>
  <text x="644" y="227" fill="#2C2C2A" font-family="DM Sans, Arial, sans-serif" font-size="18" font-weight="700">Yield of a Tree</text>
  <rect x="104" y="274" width="770" height="330" rx="26" fill="#FBFCF4" stroke="#DCE3D8"/>
  <line x1="492" y1="340" x2="332" y2="430" stroke="#5C8D90" stroke-width="5"/>
  <line x1="492" y1="340" x2="652" y2="430" stroke="#5C8D90" stroke-width="5"/>
  <line x1="332" y1="430" x2="252" y2="520" stroke="#5C8D90" stroke-width="5"/>
  <line x1="332" y1="430" x2="412" y2="520" stroke="#5C8D90" stroke-width="5"/>
  <line x1="652" y1="430" x2="572" y2="520" stroke="#5C8D90" stroke-width="5"/>
  <line x1="652" y1="430" x2="732" y2="520" stroke="#5C8D90" stroke-width="5"/>
  <rect x="452" y="308" width="80" height="44" rx="22" fill="#EAF5FA" stroke="#5C8D90" stroke-width="3"/>
  <rect x="292" y="402" width="80" height="44" rx="22" fill="#EAF5FA" stroke="#5C8D90" stroke-width="3"/>
  <rect x="612" y="402" width="80" height="44" rx="22" fill="#EAF5FA" stroke="#5C8D90" stroke-width="3"/>
  <rect x="212" y="496" width="80" height="44" rx="22" fill="#FEFAE0" stroke="#5C8D90" stroke-width="3"/>
  <rect x="372" y="496" width="80" height="44" rx="22" fill="#FEFAE0" stroke="#5C8D90" stroke-width="3"/>
  <rect x="532" y="496" width="80" height="44" rx="22" fill="#FEFAE0" stroke="#5C8D90" stroke-width="3"/>
  <rect x="692" y="496" width="80" height="44" rx="22" fill="#FEFAE0" stroke="#5C8D90" stroke-width="3"/>
  <rect x="910" y="274" width="266" height="330" rx="26" fill="#F8FBFD" stroke="#BADFEA"/>
  <text x="936" y="320" fill="#2C2C2A" font-family="DM Sans, Arial, sans-serif" font-size="24" font-weight="700">Interactive Controls</text>
  <rect x="936" y="350" width="214" height="50" rx="18" fill="#FEFAE0" stroke="#DDE5B6"/>
  <text x="966" y="382" fill="#2C2C2A" font-family="DM Sans, Arial, sans-serif" font-size="18">Generate tree from grammar</text>
  <rect x="936" y="418" width="214" height="50" rx="18" fill="#EAF5FA" stroke="#BADFEA"/>
  <text x="972" y="450" fill="#2C2C2A" font-family="DM Sans, Arial, sans-serif" font-size="18">Drag nodes to inspect</text>
  <rect x="936" y="486" width="214" height="50" rx="18" fill="#FEFAE0" stroke="#DDE5B6"/>
  <text x="975" y="518" fill="#2C2C2A" font-family="DM Sans, Arial, sans-serif" font-size="18">Autoplay with speed</text>
  <text x="104" y="638" fill="#5F625D" font-family="DM Sans, Arial, sans-serif" font-size="20">Construction steps, ambiguity examples, and yield reading are all available from the same visualizer workspace.</text>
</svg>
