<svg width="1200" height="630" viewBox="0 0 1200 630" fill="none" xmlns="http://www.w3.org/2000/svg">
  <rect width="1200" height="630" rx="36" fill="#F9F7EA"/>
  <rect x="42" y="42" width="1116" height="546" rx="34" fill="white" stroke="#DCE3D8"/>
  <rect x="74" y="74" width="1052" height="124" rx="32" fill="#5C8D90"/>
  <text x="120" y="138" fill="#FEFAE0" font-family="DM Sans, Arial, sans-serif" font-size="54" font-weight="700">Context Free Grammar and Parse Trees</text>
  <text x="120" y="178" fill="#EAF2EF" font-family="DM Sans, Arial, sans-serif" font-size="28">Interactive derivation, parse tree generation, visual explanation, and quiz practice</text>
  <rect x="102" y="244" width="470" height="284" rx="28" fill="#FBFCF4" stroke="#DCE3D8"/>
  <text x="136" y="294" fill="#2C2C2A" font-family="DM Sans, Arial, sans-serif" font-size="30" font-weight="700">Generator</text>
  <rect x="136" y="320" width="402" height="54" rx="18" fill="#F8FBFD" stroke="#BADFEA"/>
  <text x="160" y="354" fill="#2C2C2A" font-family="JetBrains Mono, monospace" font-size="24">S -&gt; a S b | ε</text>
  <rect x="136" y="392" width="170" height="48" rx="24" fill="#5C8D90"/>
  <text x="184" y="423" fill="#FEFAE0" font-family="DM Sans, Arial, sans-serif" font-size="21" font-weight="700">Generate</text>
  <rect x="136" y="456" width="402" height="44" rx="18" fill="#FEFAE0"/>
  <text x="160" y="484" fill="#2C2C2A" font-family="JetBrains Mono, monospace" font-size="21">S ⇒ a S b ⇒ a a b b</text>
  <rect x="620" y="244" width="478" height="284" rx="28" fill="#FBFCF4" stroke="#DCE3D8"/>
  <text x="654" y="294" fill="#2C2C2A" font-family="DM Sans, Arial, sans-serif" font-size="30" font-weight="700">Visualizer</text>
  <line x1="860" y1="344" x2="760" y2="404" stroke="#5C8D90" stroke-width="5"/>
  <line x1="860" y1="344" x2="960" y2="404" stroke="#5C8D90" stroke-width="5"/>
  <line x1="760" y1="404" x2="710" y2="470" stroke="#5C8D90" stroke-width="5"/>
  <line x1="760" y1="404" x2="810" y2="470" stroke="#5C8D90" stroke-width="5"/>
  <line x1="960" y1="404" x2="910" y2="470" stroke="#5C8D90" stroke-width="5"/>
  <line x1="960" y1="404" x2="1010" y2="470" stroke="#5C8D90" stroke-width="5"/>
  <rect x="824" y="322" width="72" height="40" rx="20" fill="#EAF5FA" stroke="#5C8D90" stroke-width="3"/>
  <rect x="724" y="384" width="72" height="40" rx="20" fill="#EAF5FA" stroke="#5C8D90" stroke-width="3"/>
  <rect x="924" y="384" width="72" height="40" rx="20" fill="#EAF5FA" stroke="#5C8D90" stroke-width="3"/>
  <rect x="674" y="448" width="72" height="40" rx="20" fill="#FEFAE0" stroke="#5C8D90" stroke-width="3"/>
  <rect x="774" y="448" width="72" height="40" rx="20" fill="#FEFAE0" stroke="#5C8D90" stroke-width="3"/>
  <rect x="874" y="448" width="72" height="40" rx="20" fill="#FEFAE0" stroke="#5C8D90" stroke-width="3"/>
  <rect x="974" y="448" width="72" height="40" rx="20" fill="#FEFAE0" stroke="#5C8D90" stroke-width="3"/>
</svg>
